<svg xmlns="http://www.w3.org/2000/svg" viewBox="0 0 400 250" width="100%" height="100%">
  <defs>
    <linearGradient id="ff-grad" x1="0%" y1="0%" x2="100%" y2="100%">
      <stop offset="0%" stop-color="#FF416C" />
      <stop offset="100%" stop-color="#FF4B2B" />
    </linearGradient>
    <filter id="glow-ff">
      <feGaussianBlur stdDeviation="8" result="coloredBlur"/>
      <feMerge>
        <feMergeNode in="coloredBlur"/>
        <feMergeNode in="SourceGraphic"/>
      </feMerge>
    </filter>
  </defs>
  <rect width="400" height="250" rx="16" fill="url(#ff-grad)"/>
  <rect width="380" height="230" x="10" y="10" rx="12" fill="#0f1923" opacity="0.85"/>
  <g transform="translate(200, 110)" filter="url(#glow-ff)">
    <!-- Fire Icon representation -->
    <path d="M 0 -35 C 15 -15 25 5 15 25 C 5 40 -25 40 -20 20 C -15 25 -5 25 -5 10 C -5 -15 -15 -10 0 -35 Z" fill="#FF4B2B"/>
    <path d="M 5 -15 C 10 -5 15 5 10 15 C 5 25 -15 25 -10 15 C -8 18 -2 18 -2 10 C -2 -5 -8 -3 5 -15 Z" fill="#FFA07A"/>
  </g>
  <text x="200" y="195" font-family="'Outfit', sans-serif" font-size="24" font-weight="bold" fill="#ffffff" text-anchor="middle" letter-spacing="3">FREE FIRE</text>
  <text x="200" y="215" font-family="'Inter', sans-serif" font-size="12" fill="#FF4B2B" text-anchor="middle" letter-spacing="1">BATTLEGROUNDS</text>
</svg>
